<?xml version="1.0" encoding="utf-8"?>
<!-- Generator: Adobe Illustrator 16.0.0, SVG Export Plug-In . SVG Version: 6.00 Build 0)  -->
<!DOCTYPE svg PUBLIC "-//W3C//DTD SVG 1.1//EN" "http://www.w3.org/Graphics/SVG/1.1/DTD/svg11.dtd">
<svg version="1.1" id="Layer_1" xmlns="http://www.w3.org/2000/svg" xmlns:xlink="http://www.w3.org/1999/xlink" x="0px" y="0px"
	 width="532px" height="212px" viewBox="0 0 532 212" enable-background="new 0 0 532 212" xml:space="preserve">
<rect x="117.25" y="53.75" fill="#A5A8A5" width="20.75" height="51.25"/>
<polygon fill="#A5A8A5" points="96.625,105 75.875,105 75.875,23.75 96.625,13.25 "/>
<polygon fill="#A5A8A5" points="138,105 158.75,105 158.75,177.395 138,186.75 "/>
<polygon fill="#A5A8A5" points="54.25,105 75,105 75,186.25 54.25,196.75 "/>
<polygon fill="#A5A8A5" points="12,105.625 32.75,105.625 32.75,176.027 12,185.125 "/>
<polygon fill="#A5A8A5" points="54.25,105 54.25,55.875 32.75,45.875 32.75,105 "/>
<path fill="#2C37F4" d="M130.75,150.875v31.5c0,0,1,4-5,4.375s-37.75,0-37.75,0s-5.75-0.125-6.25-4.875s0-29.75,0-29.75
	s11.75,7.25,19,3.25s20-10.75,22-9.5S127,144.625,130.75,150.875z"/>
<text transform="matrix(1 0 0 1 170.625 99.375)" fill="#2C37F4" font-family="'Verdana'" font-size="63.3061">M</text>
<text transform="matrix(1 0 0 1 223.9775 99.375)" fill="#A5A8A5" font-family="'Verdana'" font-size="63.3061">odern </text>
<text transform="matrix(1 0 0 1 170.625 175.3428)" fill="#2C37F4" font-family="'Verdana'" font-size="63.3061">C</text>
<text transform="matrix(1 0 0 1 214.8281 175.3428)" fill="#A5A8A5" font-family="'Verdana'" font-size="63.3061">omputers</text>
</svg>
